<svg xmlns="http://www.w3.org/2000/svg" xmlns:xlink="http://www.w3.org/1999/xlink" viewBox="0,0,256,256" width="50px" height="50px" fill-rule="nonzero"><g fill="#1d242b" fill-rule="nonzero" stroke="none" stroke-width="1" stroke-linecap="butt" stroke-linejoin="miter" stroke-miterlimit="10" stroke-dasharray="" stroke-dashoffset="0" font-family="none" font-weight="none" font-size="none" text-anchor="none" style="mix-blend-mode: normal"><path d="M0,256v-256h256v256z" id="bgRectangle"></path></g><g fill="#a3ffd6" fill-rule="nonzero" stroke="none" stroke-width="1" stroke-linecap="butt" stroke-linejoin="miter" stroke-miterlimit="10" stroke-dasharray="" stroke-dashoffset="0" font-family="none" font-weight="none" font-size="none" text-anchor="none" style="mix-blend-mode: normal"><g transform="scale(5.12,5.12)"><path d="M25.5,6c-3.542,0 -6.93073,0.94652 -9.92773,2.72852l6.97656,3.74609c3.138,1.685 5.35952,4.56833 6.22852,7.98633l0.30664,0.46094l3.37695,5.06445l0.6875,1.0332c1.843,0.074 3.24227,1.42028 3.82227,3.73828c0.822,3.287 -1.17155,5.78053 -3.31055,7.01953c-1.455,0.952 -4.73516,1.72266 -7.66016,1.72266c-4.713,0 -9.24327,-1.84731 -11.82227,-4.82031c-1.802,-2.078 -2.55287,-4.585 -2.17187,-7.25c0.003,-0.022 0.01453,-0.03955 0.01953,-0.06055c0.009,-0.034 0.02016,-0.0657 0.03516,-0.0957c0.014,-0.026 0.02988,-0.04827 0.04688,-0.07227c0.022,-0.029 0.04427,-0.05412 0.07227,-0.07812c0.02,-0.017 0.04245,-0.02997 0.06445,-0.04297c0.032,-0.02 0.06456,-0.03683 0.10156,-0.04883c0.027,-0.009 0.05499,-0.01258 0.08399,-0.01758c0.025,-0.003 0.04531,-0.01367 0.07031,-0.01367c0.013,0 0.02216,0.00681 0.03516,0.00781c0.012,0.001 0.02316,-0.00395 0.03516,-0.00195c0.022,0.003 0.0415,0.01548 0.0625,0.02148c0.033,0.009 0.06375,0.0182 0.09375,0.0332c0.029,0.015 0.05313,0.03273 0.07813,0.05273c0.025,0.02 0.04931,0.03945 0.07031,0.06445c0.021,0.024 0.03673,0.05012 0.05273,0.07813c0.016,0.027 0.03102,0.05398 0.04102,0.08398c0.011,0.032 0.01553,0.06561 0.01953,0.09961c0.001,0.02 0.01172,0.03855 0.01172,0.06055c0,1.401 0.42206,2.4762 1.28906,3.2832c1.571,1.463 4.65378,2.04675 9.17578,1.71875c2.289,-0.163 4.10911,-0.57786 5.53711,-1.25586c-0.001,-0.026 0,-0.07337 0,-0.10937l-1.02344,-0.68359l-4.49219,-2.99219l-0.17578,-0.01563c-3.723,-0.311 -7.09405,-2.23806 -9.24805,-5.28906l-5.02344,-7.11523c-1.993,3.122 -3.03906,6.70698 -3.03906,10.45898c0,10.752 8.748,19.5 19.5,19.5c10.752,0 19.5,-8.748 19.5,-19.5c0,-10.752 -8.748,-19.5 -19.5,-19.5zM5.91797,6.00781c-0.10787,0.01788 -0.20911,0.07075 -0.28711,0.15625c-0.115,0.127 -0.12689,0.29413 -0.08789,0.45313l10.15234,14.38477c1.597,2.263 3.99359,3.77711 6.68359,4.28711l0.00195,-0.00977c0.068,-1.238 0.51391,-2.41636 1.25391,-3.31836c0.743,-0.906 1.76127,-1.52973 2.94727,-1.80273l0.02539,-0.00586c-0.856,-2.522 -2.61391,-4.63202 -5.00391,-5.91602l-15.36328,-8.17383c-0.1015,-0.055 -0.21439,-0.07256 -0.32227,-0.05469zM27.38672,22.03125l-0.33594,0.07813c-0.762,0.175 -1.38556,0.55114 -1.85156,1.11914c-0.475,0.578 -0.75969,1.34611 -0.80469,2.16211l-0.01562,0.28516l4.67383,3.11328c0.404,-0.707 0.99698,-1.28841 1.70898,-1.69141zM32.9668,28.50391c-0.074,0 -0.14861,0.00277 -0.22461,0.00977c-1.03,0.102 -1.94483,0.89472 -2.17383,1.88672c-0.234,1.017 0.10472,2.01452 0.88672,2.60352c0.951,0.716 1.07536,1.77255 1.06836,2.81055l-0.00586,0.95508l0.78906,-0.53906c0.895,-0.612 2.90098,-2.33542 2.20898,-5.10742c-0.423,-1.699 -1.32783,-2.61914 -2.54883,-2.61914z"></path></g></g></svg>